<svg width="1362" height="651" xmlns="http://www.w3.org/2000/svg"><g><path d="M-92.67751741455868,-109.25401534186676L-119.46170628769323,230.41510581504554L-87.8317429474555,122.11182748898864Z" fill="#fffff4" stroke="#fffff4"></path><path d="M-92.67751741455868,-109.25401534186676L-87.8317429474555,122.11182748898864L89.82492493232712,56.41970499418676Z" fill="#fffdf7" stroke="#fffdf7"></path><path d="M-92.67751741455868,-109.25401534186676L89.82492493232712,56.41970499418676L59.31731706717983,-105.52424309076741Z" fill="#fffaf4" stroke="#fffaf4"></path><path d="M-92.67751741455868,-109.25401534186676L59.31731706717983,-105.52424309076741L1580.0960155646317,-115.5444701993838Z" fill="#fed4b9" stroke="#fed4b9"></path><path d="M59.31731706717983,-105.52424309076741L89.82492493232712,56.41970499418676L180.66377547103912,70.62802754342556Z" fill="#fff6e8" stroke="#fff6e8"></path><path d="M59.31731706717983,-105.52424309076741L180.66377547103912,70.62802754342556L269.998047654517,-69.42337487125769Z" fill="#fff3e1" stroke="#fff3e1"></path><path d="M59.31731706717983,-105.52424309076741L269.998047654517,-69.42337487125769L320.6944961147383,-96.14148694556206Z" fill="#ffefdb" stroke="#ffefdb"></path><path d="M59.31731706717983,-105.52424309076741L320.6944961147383,-96.14148694556206L1580.0960155646317,-115.5444701993838Z" fill="#fcc0aa" stroke="#fcc0aa"></path><path d="M269.998047654517,-69.42337487125769L180.66377547103912,70.62802754342556L340.99809215869755,43.62077922793105Z" fill="#feecd3" stroke="#feecd3"></path><path d="M269.998047654517,-69.42337487125769L340.99809215869755,43.62077922793105L320.6944961147383,-96.14148694556206Z" fill="#fee9ce" stroke="#fee9ce"></path><path d="M320.6944961147383,-96.14148694556206L340.99809215869755,43.62077922793105L518.0173893179744,-86.0248406836763Z" fill="#fee2c7" stroke="#fee2c7"></path><path d="M320.6944961147383,-96.14148694556206L518.0173893179744,-86.0248406836763L623.0609607044607,-85.19016372738406Z" fill="#fed8bd" stroke="#fed8bd"></path><path d="M320.6944961147383,-96.14148694556206L623.0609607044607,-85.19016372738406L1580.0960155646317,-115.5444701993838Z" fill="#f1a398" stroke="#f1a398"></path><path d="M518.0173893179744,-86.0248406836763L340.99809215869755,43.62077922793105L542.873707250692,72.38742112414911Z" fill="#fedbbf" stroke="#fedbbf"></path><path d="M518.0173893179744,-86.0248406836763L542.873707250692,72.38742112414911L623.0609607044607,-85.19016372738406Z" fill="#fecdb3" stroke="#fecdb3"></path><path d="M623.0609607044607,-85.19016372738406L542.873707250692,72.38742112414911L681.1567359697074,59.45405494654551Z" fill="#fdc5aa" stroke="#fdc5aa"></path><path d="M623.0609607044607,-85.19016372738406L681.1567359697074,59.45405494654551L823.8264391734265,-81.94254013011232Z" fill="#f9b9a6" stroke="#f9b9a6"></path><path d="M623.0609607044607,-85.19016372738406L823.8264391734265,-81.94254013011232L1580.0960155646317,-115.5444701993838Z" fill="#df8885" stroke="#df8885"></path><path d="M823.8264391734265,-81.94254013011232L681.1567359697074,59.45405494654551L790.735157399904,65.21654235664755Z" fill="#f7b1a1" stroke="#f7b1a1"></path><path d="M823.8264391734265,-81.94254013011232L790.735157399904,65.21654235664755L935.6368610402569,-59.06951752724126Z" fill="#f0a297" stroke="#f0a297"></path><path d="M823.8264391734265,-81.94254013011232L935.6368610402569,-59.06951752724126L1164.2497570626438,-53.35755955893546Z" fill="#e38d88" stroke="#e38d88"></path><path d="M823.8264391734265,-81.94254013011232L1164.2497570626438,-53.35755955893546L1436.1360229481943,-81.78997462848201Z" fill="#cb8080" stroke="#cb8080"></path><path d="M823.8264391734265,-81.94254013011232L1436.1360229481943,-81.78997462848201L1580.0960155646317,-115.5444701993838Z" fill="#b38080" stroke="#b38080"></path><path d="M935.6368610402569,-59.06951752724126L790.735157399904,65.21654235664755L951.7156054079533,74.04347546165809Z" fill="#ec9a8e" stroke="#ec9a8e"></path><path d="M935.6368610402569,-59.06951752724126L951.7156054079533,74.04347546165809L1164.2497570626438,-53.35755955893546Z" fill="#de8684" stroke="#de8684"></path><path d="M1164.2497570626438,-53.35755955893546L951.7156054079533,74.04347546165809L1141.5870247641578,127.1733927889727Z" fill="#d5807a" stroke="#d5807a"></path><path d="M1164.2497570626438,-53.35755955893546L1141.5870247641578,127.1733927889727L1259.958634627983,124.75265942048281Z" fill="#c38078" stroke="#c38078"></path><path d="M1164.2497570626438,-53.35755955893546L1259.958634627983,124.75265942048281L1318.3026032079943,-42.87763623520732Z" fill="#b9807f" stroke="#b9807f"></path><path d="M1164.2497570626438,-53.35755955893546L1318.3026032079943,-42.87763623520732L1436.1360229481943,-81.78997462848201Z" fill="#af8080" stroke="#af8080"></path><path d="M1318.3026032079943,-42.87763623520732L1259.958634627983,124.75265942048281L1394.100462864153,88.02470608381554Z" fill="#ac8079" stroke="#ac8079"></path><path d="M1318.3026032079943,-42.87763623520732L1394.100462864153,88.02470608381554L1436.1360229481943,-81.78997462848201Z" fill="#a28080" stroke="#a28080"></path><path d="M1436.1360229481943,-81.78997462848201L1394.100462864153,88.02470608381554L1625.0898693315685,56.72067000064999Z" fill="#90807d" stroke="#90807d"></path><path d="M1436.1360229481943,-81.78997462848201L1625.0898693315685,56.72067000064999L1580.0960155646317,-115.5444701993838Z" fill="#858080" stroke="#858080"></path><path d="M-87.8317429474555,122.11182748898864L-119.46170628769323,230.41510581504554L21.36994315776974,244.07520222011954Z" fill="#fff2d0" stroke="#fff2d0"></path><path d="M-87.8317429474555,122.11182748898864L21.36994315776974,244.07520222011954L89.82492493232712,56.41970499418676Z" fill="#fffad5" stroke="#fffad5"></path><path d="M89.82492493232712,56.41970499418676L21.36994315776974,244.07520222011954L176.34987487690523,277.6233061007224Z" fill="#ffebbe" stroke="#ffebbe"></path><path d="M89.82492493232712,56.41970499418676L176.34987487690523,277.6233061007224L180.66377547103912,70.62802754342556Z" fill="#fff3c6" stroke="#fff3c6"></path><path d="M180.66377547103912,70.62802754342556L176.34987487690523,277.6233061007224L342.1663950732909,216.26611361978576Z" fill="#fee4ad" stroke="#fee4ad"></path><path d="M180.66377547103912,70.62802754342556L342.1663950732909,216.26611361978576L340.99809215869755,43.62077922793105Z" fill="#feeabb" stroke="#feeabb"></path><path d="M340.99809215869755,43.62077922793105L342.1663950732909,216.26611361978576L542.873707250692,72.38742112414911Z" fill="#fee0b0" stroke="#fee0b0"></path><path d="M542.873707250692,72.38742112414911L342.1663950732909,216.26611361978576L531.2543487665243,226.64420787477866Z" fill="#fed498" stroke="#fed498"></path><path d="M542.873707250692,72.38742112414911L531.2543487665243,226.64420787477866L688.6202162480913,172.23529961658642Z" fill="#fec58b" stroke="#fec58b"></path><path d="M542.873707250692,72.38742112414911L688.6202162480913,172.23529961658642L681.1567359697074,59.45405494654551Z" fill="#fcc198" stroke="#fcc198"></path><path d="M681.1567359697074,59.45405494654551L688.6202162480913,172.23529961658642L790.735157399904,65.21654235664755Z" fill="#f9b794" stroke="#f9b794"></path><path d="M790.735157399904,65.21654235664755L688.6202162480913,172.23529961658642L801.7335730139166,219.43619387457147Z" fill="#f7af80" stroke="#f7af80"></path><path d="M790.735157399904,65.21654235664755L801.7335730139166,219.43619387457147L951.7156054079533,74.04347546165809Z" fill="#f0a27f" stroke="#f0a27f"></path><path d="M951.7156054079533,74.04347546165809L801.7335730139166,219.43619387457147L950.7307517481968,261.5639899810776Z" fill="#ec8f66" stroke="#ec8f66"></path><path d="M951.7156054079533,74.04347546165809L950.7307517481968,261.5639899810776L1141.5870247641578,127.1733927889727Z" fill="#df8461" stroke="#df8461"></path><path d="M1141.5870247641578,127.1733927889727L950.7307517481968,261.5639899810776L1122.4360321718268,245.81682271324098Z" fill="#d77150" stroke="#d77150"></path><path d="M1141.5870247641578,127.1733927889727L1122.4360321718268,245.81682271324098L1286.6961710574105,229.04673578450456Z" fill="#c47352" stroke="#c47352"></path><path d="M1141.5870247641578,127.1733927889727L1286.6961710574105,229.04673578450456L1259.958634627983,124.75265942048281Z" fill="#bc7c5b" stroke="#bc7c5b"></path><path d="M1259.958634627983,124.75265942048281L1286.6961710574105,229.04673578450456L1394.100462864153,88.02470608381554Z" fill="#ae7e5e" stroke="#ae7e5e"></path><path d="M1394.100462864153,88.02470608381554L1286.6961710574105,229.04673578450456L1439.79973384412,174.3527362169698Z" fill="#a37b5a" stroke="#a37b5a"></path><path d="M1394.100462864153,88.02470608381554L1439.79973384412,174.3527362169698L1625.0898693315685,56.72067000064999Z" fill="#907f6c" stroke="#907f6c"></path><path d="M1625.0898693315685,56.72067000064999L1439.79973384412,174.3527362169698L1538.3894883980975,258.56796137522906Z" fill="#887b5a" stroke="#887b5a"></path><path d="M1625.0898693315685,56.72067000064999L1538.3894883980975,258.56796137522906L1544.8435613699257,324.99839208787307Z" fill="#827050" stroke="#827050"></path><path d="M1625.0898693315685,56.72067000064999L1544.8435613699257,324.99839208787307L1582.7932094410062,782.0143082831055Z" fill="#803122" stroke="#803122"></path><path d="M-119.46170628769323,230.41510581504554L-116.62534923758358,544.924500528723L-48.06781579507515,369.85236945562065Z" fill="#ffb3a4" stroke="#ffb3a4"></path><path d="M-119.46170628769323,230.41510581504554L-48.06781579507515,369.85236945562065L21.36994315776974,244.07520222011954Z" fill="#ffd5b4" stroke="#ffd5b4"></path><path d="M21.36994315776974,244.07520222011954L-48.06781579507515,369.85236945562065L81.04223900474608,332.4755754740909Z" fill="#ffc6a6" stroke="#ffc6a6"></path><path d="M21.36994315776974,244.07520222011954L81.04223900474608,332.4755754740909L176.34987487690523,277.6233061007224Z" fill="#ffcda2" stroke="#ffcda2"></path><path d="M176.34987487690523,277.6233061007224L81.04223900474608,332.4755754740909L211.0965327732265,403.0311398766935Z" fill="#ffb892" stroke="#ffb892"></path><path d="M176.34987487690523,277.6233061007224L211.0965327732265,403.0311398766935L342.1663950732909,216.26611361978576Z" fill="#febf8b" stroke="#febf8b"></path><path d="M342.1663950732909,216.26611361978576L211.0965327732265,403.0311398766935L425.87497550528497,414.7567400126718Z" fill="#feaa7b" stroke="#feaa7b"></path><path d="M342.1663950732909,216.26611361978576L425.87497550528497,414.7567400126718L531.2543487665243,226.64420787477866Z" fill="#feb57a" stroke="#feb57a"></path><path d="M531.2543487665243,226.64420787477866L425.87497550528497,414.7567400126718L578.9140808745287,412.52559036016464Z" fill="#fe9467" stroke="#fe9467"></path><path d="M531.2543487665243,226.64420787477866L578.9140808745287,412.52559036016464L668.50397096714,364.81367049971595Z" fill="#fe8e5d" stroke="#fe8e5d"></path><path d="M531.2543487665243,226.64420787477866L668.50397096714,364.81367049971595L688.6202162480913,172.23529961658642Z" fill="#fda56d" stroke="#fda56d"></path><path d="M688.6202162480913,172.23529961658642L668.50397096714,364.81367049971595L801.7335730139166,219.43619387457147Z" fill="#f99a68" stroke="#f99a68"></path><path d="M801.7335730139166,219.43619387457147L668.50397096714,364.81367049971595L818.508511504624,333.522815334145Z" fill="#f78056" stroke="#f78056"></path><path d="M801.7335730139166,219.43619387457147L818.508511504624,333.522815334145L950.7307517481968,261.5639899810776Z" fill="#ef7c52" stroke="#ef7c52"></path><path d="M950.7307517481968,261.5639899810776L818.508511504624,333.522815334145L956.0718487692066,425.4760711826384Z" fill="#eb5b3e" stroke="#eb5b3e"></path><path d="M950.7307517481968,261.5639899810776L956.0718487692066,425.4760711826384L1112.054338955786,341.88775575486943Z" fill="#e04b33" stroke="#e04b33"></path><path d="M950.7307517481968,261.5639899810776L1112.054338955786,341.88775575486943L1122.4360321718268,245.81682271324098Z" fill="#d95737" stroke="#d95737"></path><path d="M1122.4360321718268,245.81682271324098L1112.054338955786,341.88775575486943L1286.6961710574105,229.04673578450456Z" fill="#c65b3b" stroke="#c65b3b"></path><path d="M1286.6961710574105,229.04673578450456L1112.054338955786,341.88775575486943L1326.6598641872406,341.5599139453843Z" fill="#ba4f33" stroke="#ba4f33"></path><path d="M1286.6961710574105,229.04673578450456L1326.6598641872406,341.5599139453843L1439.79973384412,174.3527362169698Z" fill="#a76444" stroke="#a76444"></path><path d="M1439.79973384412,174.3527362169698L1326.6598641872406,341.5599139453843L1453.9029902522452,388.4830044559203Z" fill="#9e5034" stroke="#9e5034"></path><path d="M1439.79973384412,174.3527362169698L1453.9029902522452,388.4830044559203L1538.3894883980975,258.56796137522906Z" fill="#915a3b" stroke="#915a3b"></path><path d="M1538.3894883980975,258.56796137522906L1453.9029902522452,388.4830044559203L1544.8435613699257,324.99839208787307Z" fill="#8b4930" stroke="#8b4930"></path><path d="M-48.06781579507515,369.85236945562065L-116.62534923758358,544.924500528723L39.03297713724896,555.0942602916621Z" fill="#ef847f" stroke="#ef847f"></path><path d="M-48.06781579507515,369.85236945562065L39.03297713724896,555.0942602916621L81.04223900474608,332.4755754740909Z" fill="#ff9e8b" stroke="#ff9e8b"></path><path d="M81.04223900474608,332.4755754740909L39.03297713724896,555.0942602916621L211.0965327732265,403.0311398766935Z" fill="#ff947d" stroke="#ff947d"></path><path d="M211.0965327732265,403.0311398766935L39.03297713724896,555.0942602916621L233.92016551224515,512.4207527958788Z" fill="#ee7a67" stroke="#ee7a67"></path><path d="M211.0965327732265,403.0311398766935L233.92016551224515,512.4207527958788L425.87497550528497,414.7567400126718Z" fill="#fc8461" stroke="#fc8461"></path><path d="M425.87497550528497,414.7567400126718L233.92016551224515,512.4207527958788L416.4981496986002,576.65827794699Z" fill="#eb684c" stroke="#eb684c"></path><path d="M425.87497550528497,414.7567400126718L416.4981496986002,576.65827794699L481.6932534868829,531.3043536874466Z" fill="#e95f43" stroke="#e95f43"></path><path d="M425.87497550528497,414.7567400126718L481.6932534868829,531.3043536874466L578.9140808745287,412.52559036016464Z" fill="#f96c4a" stroke="#f96c4a"></path><path d="M578.9140808745287,412.52559036016464L481.6932534868829,531.3043536874466L707.1240810328163,556.4909843634814Z" fill="#eb4c31" stroke="#eb4c31"></path><path d="M578.9140808745287,412.52559036016464L707.1240810328163,556.4909843634814L668.50397096714,364.81367049971595Z" fill="#f9593a" stroke="#f9593a"></path><path d="M668.50397096714,364.81367049971595L707.1240810328163,556.4909843634814L850.8637530356646,482.7573149977252Z" fill="#ee442f" stroke="#ee442f"></path><path d="M668.50397096714,364.81367049971595L850.8637530356646,482.7573149977252L818.508511504624,333.522815334145Z" fill="#f55d41" stroke="#f55d41"></path><path d="M818.508511504624,333.522815334145L850.8637530356646,482.7573149977252L956.0718487692066,425.4760711826384Z" fill="#ee432e" stroke="#ee432e"></path><path d="M956.0718487692066,425.4760711826384L850.8637530356646,482.7573149977252L949.2879461869597,495.2710586367175Z" fill="#e02619" stroke="#e02619"></path><path d="M956.0718487692066,425.4760711826384L949.2879461869597,495.2710586367175L1075.0784780760296,525.6844337657094Z" fill="#d3140d" stroke="#d3140d"></path><path d="M956.0718487692066,425.4760711826384L1075.0784780760296,525.6844337657094L1112.054338955786,341.88775575486943Z" fill="#db2015" stroke="#db2015"></path><path d="M1112.054338955786,341.88775575486943L1075.0784780760296,525.6844337657094L1329.359766235575,539.3467358220369Z" fill="#bc0f0a" stroke="#bc0f0a"></path><path d="M1112.054338955786,341.88775575486943L1329.359766235575,539.3467358220369L1326.6598641872406,341.5599139453843Z" fill="#b7281c" stroke="#b7281c"></path><path d="M1326.6598641872406,341.5599139453843L1329.359766235575,539.3467358220369L1453.9029902522452,388.4830044559203Z" fill="#a42116" stroke="#a42116"></path><path d="M1453.9029902522452,388.4830044559203L1329.359766235575,539.3467358220369L1467.312676217407,530.0903341430239Z" fill="#8d0805" stroke="#8d0805"></path><path d="M1453.9029902522452,388.4830044559203L1467.312676217407,530.0903341430239L1544.8435613699257,324.99839208787307Z" fill="#8f2519" stroke="#8f2519"></path><path d="M1544.8435613699257,324.99839208787307L1467.312676217407,530.0903341430239L1535.463928966783,575.2129223127849Z" fill="#7e0c08" stroke="#7e0c08"></path><path d="M1544.8435613699257,324.99839208787307L1535.463928966783,575.2129223127849L1582.7932094410062,782.0143082831055Z" fill="#580000" stroke="#580000"></path><path d="M-116.62534923758358,544.924500528723L-68.97874295711517,719.8635005718097L39.03297713724896,555.0942602916621Z" fill="#bf7e7c" stroke="#bf7e7c"></path><path d="M39.03297713724896,555.0942602916621L-68.97874295711517,719.8635005718097L26.44599947379902,723.0400637816638Z" fill="#a67c76" stroke="#a67c76"></path><path d="M39.03297713724896,555.0942602916621L26.44599947379902,723.0400637816638L250.71934503735974,639.6969200135209Z" fill="#b1776a" stroke="#b1776a"></path><path d="M39.03297713724896,555.0942602916621L250.71934503735974,639.6969200135209L233.92016551224515,512.4207527958788Z" fill="#cf7361" stroke="#cf7361"></path><path d="M233.92016551224515,512.4207527958788L250.71934503735974,639.6969200135209L416.4981496986002,576.65827794699Z" fill="#cb6a50" stroke="#cb6a50"></path><path d="M416.4981496986002,576.65827794699L250.71934503735974,639.6969200135209L342.2770646237768,686.0108798998408Z" fill="#b2674c" stroke="#b2674c"></path><path d="M416.4981496986002,576.65827794699L342.2770646237768,686.0108798998408L540.5028727720492,717.2868395177647Z" fill="#a75f44" stroke="#a75f44"></path><path d="M416.4981496986002,576.65827794699L540.5028727720492,717.2868395177647L481.6932534868829,531.3043536874466Z" fill="#be5a3f" stroke="#be5a3f"></path><path d="M481.6932534868829,531.3043536874466L540.5028727720492,717.2868395177647L629.682193689514,675.2840304863639Z" fill="#af4f35" stroke="#af4f35"></path><path d="M481.6932534868829,531.3043536874466L629.682193689514,675.2840304863639L707.1240810328163,556.4909843634814Z" fill="#c6472d" stroke="#c6472d"></path><path d="M707.1240810328163,556.4909843634814L629.682193689514,675.2840304863639L841.0357803711668,646.883616107516Z" fill="#b03726" stroke="#b03726"></path><path d="M707.1240810328163,556.4909843634814L841.0357803711668,646.883616107516L850.8637530356646,482.7573149977252Z" fill="#c72b1e" stroke="#c72b1e"></path><path d="M850.8637530356646,482.7573149977252L841.0357803711668,646.883616107516L949.2879461869597,495.2710586367175Z" fill="#c91d13" stroke="#c91d13"></path><path d="M949.2879461869597,495.2710586367175L841.0357803711668,646.883616107516L1010.5178814008832,672.8948163660243Z" fill="#a9140d" stroke="#a9140d"></path><path d="M949.2879461869597,495.2710586367175L1010.5178814008832,672.8948163660243L1075.0784780760296,525.6844337657094Z" fill="#b10805" stroke="#b10805"></path><path d="M1075.0784780760296,525.6844337657094L1010.5178814008832,672.8948163660243L1158.605797616765,726.3067366811447Z" fill="#860000" stroke="#860000"></path><path d="M1075.0784780760296,525.6844337657094L1158.605797616765,726.3067366811447L1329.359766235575,539.3467358220369Z" fill="#870000" stroke="#870000"></path><path d="M1329.359766235575,539.3467358220369L1158.605797616765,726.3067366811447L1278.6610067705624,717.2710887296125Z" fill="#600000" stroke="#600000"></path><path d="M1329.359766235575,539.3467358220369L1278.6610067705624,717.2710887296125L1430.344333043322,677.3874063161202Z" fill="#570000" stroke="#570000"></path><path d="M1329.359766235575,539.3467358220369L1430.344333043322,677.3874063161202L1467.312676217407,530.0903341430239Z" fill="#680000" stroke="#680000"></path><path d="M1467.312676217407,530.0903341430239L1430.344333043322,677.3874063161202L1535.463928966783,575.2129223127849Z" fill="#570000" stroke="#570000"></path><path d="M1535.463928966783,575.2129223127849L1430.344333043322,677.3874063161202L1535.45307865832,729.7645648359321Z" fill="#360000" stroke="#360000"></path><path d="M1535.463928966783,575.2129223127849L1535.45307865832,729.7645648359321L1582.7932094410062,782.0143082831055Z" fill="#1f0000" stroke="#1f0000"></path><path d="M-68.97874295711517,719.8635005718097L-50.250927018933,773.9524474460632L26.44599947379902,723.0400637816638Z" fill="#877d7a" stroke="#877d7a"></path><path d="M26.44599947379902,723.0400637816638L-50.250927018933,773.9524474460632L80.88536103488877,777.3096423270181Z" fill="#807b74" stroke="#807b74"></path><path d="M26.44599947379902,723.0400637816638L80.88536103488877,777.3096423270181L250.71934503735974,639.6969200135209Z" fill="#917668" stroke="#917668"></path><path d="M250.71934503735974,639.6969200135209L80.88536103488877,777.3096423270181L186.87288008630276,853.149282108061Z" fill="#7f7361" stroke="#7f7361"></path><path d="M250.71934503735974,639.6969200135209L186.87288008630276,853.149282108061L342.2770646237768,686.0108798998408Z" fill="#8b6d55" stroke="#8b6d55"></path><path d="M342.2770646237768,686.0108798998408L186.87288008630276,853.149282108061L366.0640744538978,797.7825476136059Z" fill="#7f6b50" stroke="#7f6b50"></path><path d="M342.2770646237768,686.0108798998408L366.0640744538978,797.7825476136059L493.00957195693627,790.6581700802781Z" fill="#7f6247" stroke="#7f6247"></path><path d="M342.2770646237768,686.0108798998408L493.00957195693627,790.6581700802781L540.5028727720492,717.2868395177647Z" fill="#895d42" stroke="#895d42"></path><path d="M540.5028727720492,717.2868395177647L493.00957195693627,790.6581700802781L679.7829546406865,871.3662323099561Z" fill="#7e4c32" stroke="#7e4c32"></path><path d="M540.5028727720492,717.2868395177647L679.7829546406865,871.3662323099561L629.682193689514,675.2840304863639Z" fill="#7e452c" stroke="#7e452c"></path><path d="M629.682193689514,675.2840304863639L679.7829546406865,871.3662323099561L866.9790995097719,785.5639963573776Z" fill="#793726" stroke="#793726"></path><path d="M629.682193689514,675.2840304863639L866.9790995097719,785.5639963573776L841.0357803711668,646.883616107516Z" fill="#8c2f21" stroke="#8c2f21"></path><path d="M841.0357803711668,646.883616107516L866.9790995097719,785.5639963573776L1010.5178814008832,672.8948163660243Z" fill="#821910" stroke="#821910"></path><path d="M1010.5178814008832,672.8948163660243L866.9790995097719,785.5639963573776L975.0652323919348,784.8237689374946Z" fill="#6a110b" stroke="#6a110b"></path><path d="M1010.5178814008832,672.8948163660243L975.0652323919348,784.8237689374946L1117.631801115349,825.094120814465Z" fill="#5d0403" stroke="#5d0403"></path><path d="M1010.5178814008832,672.8948163660243L1117.631801115349,825.094120814465L1158.605797616765,726.3067366811447Z" fill="#590000" stroke="#590000"></path><path d="M1158.605797616765,726.3067366811447L1117.631801115349,825.094120814465L1245.8351962803863,857.6035082736053Z" fill="#460000" stroke="#460000"></path><path d="M1158.605797616765,726.3067366811447L1245.8351962803863,857.6035082736053L1278.6610067705624,717.2710887296125Z" fill="#3d0000" stroke="#3d0000"></path><path d="M1278.6610067705624,717.2710887296125L1245.8351962803863,857.6035082736053L1418.399257468991,781.8629000312649Z" fill="#2e0000" stroke="#2e0000"></path><path d="M1278.6610067705624,717.2710887296125L1418.399257468991,781.8629000312649L1430.344333043322,677.3874063161202Z" fill="#300000" stroke="#300000"></path><path d="M1430.344333043322,677.3874063161202L1418.399257468991,781.8629000312649L1535.45307865832,729.7645648359321Z" fill="#200000" stroke="#200000"></path><path d="M1535.45307865832,729.7645648359321L1418.399257468991,781.8629000312649L1582.7932094410062,782.0143082831055Z" fill="#0c0000" stroke="#0c0000"></path><path d="M-50.250927018933,773.9524474460632L186.87288008630276,853.149282108061L80.88536103488877,777.3096423270181Z" fill="#80786e" stroke="#80786e"></path><path d="M186.87288008630276,853.149282108061L679.7829546406865,871.3662323099561L366.0640744538978,797.7825476136059Z" fill="#7f6146" stroke="#7f6146"></path><path d="M366.0640744538978,797.7825476136059L679.7829546406865,871.3662323099561L493.00957195693627,790.6581700802781Z" fill="#7f553a" stroke="#7f553a"></path><path d="M679.7829546406865,871.3662323099561L1245.8351962803863,857.6035082736053L1117.631801115349,825.094120814465Z" fill="#5f0705" stroke="#5f0705"></path><path d="M679.7829546406865,871.3662323099561L1117.631801115349,825.094120814465L975.0652323919348,784.8237689374946Z" fill="#6a160e" stroke="#6a160e"></path><path d="M679.7829546406865,871.3662323099561L975.0652323919348,784.8237689374946L866.9790995097719,785.5639963573776Z" fill="#712419" stroke="#712419"></path><path d="M1245.8351962803863,857.6035082736053L1582.7932094410062,782.0143082831055L1418.399257468991,781.8629000312649Z" fill="#1d0000" stroke="#1d0000"></path></g><filter id="noise"><feTurbulence type="fractalNoise" in="fillPaint" fill="#F00" baseFrequency="0.7" numOctaves="10" stitchTiles="stitch"></feTurbulence><feComponentTransfer><feFuncR type="linear" slope="2" intercept="-.5"></feFuncR><feFuncG type="linear" slope="2" intercept="-.5"></feFuncG><feFuncB type="linear" slope="2" intercept="-.5"></feFuncB></feComponentTransfer><feColorMatrix type="matrix" values="0.3333 0.3333 0.3333 0 0 
 0.3333 0.3333 0.3333 0 0 
 0.3333 0.3333 0.3333 0 0 
 0 0 0 1 0"></feColorMatrix></filter><rect opacity="0.2" width="100%" height="100%" filter="url(#noise)"></rect></svg>